<?xml version="1.0" encoding="utf-8"?>
<?xml-stylesheet type="text/xsl" href="rss1.xsl"?>
<rss version="2.0" xmlns:atom="http://www.w3.org/2005/Atom" xmlns:content="http://purl.org/rss/1.0/modules/content/" xmlns:dc="http://purl.org/dc/elements/1.1/" xmlns:media="http://search.yahoo.com/mrss/">
<channel>
 <title>Getty</title>
 <link>http://www.gettyimg.com/</link>
 <atom:link href="http://www.gettyimg.com/" rel="self" type="application/rss+xml" />

 
                <item>
                <title><![CDATA[【Requests】[REQ AUD] - High School Musical 3: Senior Year (Audio + Video) [Original Motion Picture Soundtrack] [iTunes Plus AAC M4A + M4V]]]></title>
                <link><![CDATA[https://sharemania.us/threads/high-school-musical-3-senior-year-audio-video-original-motion-picture-soundtrack-itunes-plus-aac-m4a-m4v.239844/]]></link>
                <description><![CDATA[<article>
<blockquote class="messageText SelectQuoteContainer ugc baseHtml">
Does anyone have this version? <img src="styles/default/xenforo/smilies/cry-48.png" class="mceSmilie" alt=":cry:" title="Cry    :cry:"><br>
<br>
<img src="https://is1-ssl.mzstatic.com/image/thumb/Music115/v4/7f/11/48/7f1148a8-2451-6e06-df8e-fc6198597c51/08PNDIM04736.rgb.jpg/592x592bb.webp" class="bbCodeImage LbImage" alt="[​IMG]" data-url="https://is1-ssl.mzstatic.com/image/thumb/Music115/v4/7f/11/48/7f1148a8-2451-6e06-df8e-fc6198597c51/08PNDIM04736.rgb.jpg/592x592bb.webp" style=""><br>
<br>
<a href="https://music.apple.com/us/album/high-school-musical-3-senior-year-audio-video-original/1452839861" target="_blank" class="externalLink" rel="nofollow">https://music.apple.com/us/album/high-school-musical-3-senior-year-audio-video-original/1452839861</a>
<div class="messageTextEndMarker">&nbsp;</div>
</blockquote>
</article>]]></description>
                <author><![CDATA[bruno1901]]></author>
                </item>

                
                <item>
                <title><![CDATA[【Apple Music】WEB-RiP - Ruby - Buna, ce mai zici_ (feat. Dorian Popa) (1080p)]]></title>
                <link><![CDATA[https://sharemania.us/threads/ruby-buna-ce-mai-zici_-feat-dorian-popa-1080p.239843/]]></link>
                <description><![CDATA[<article>
<blockquote class="messageText SelectQuoteContainer ugc baseHtml">
<img src="https://i.postimg.cc/NM87WgkY/Ruby-Buna-ce-mai-zici-feat-Dorian-Popa-mp4.jpg" class="bbCodeImage LbImage" alt="[​IMG]" data-url="https://i.postimg.cc/NM87WgkY/Ruby-Buna-ce-mai-zici-feat-Dorian-Popa-mp4.jpg" style=""><br>
<br>
<div class="bbCodeBlock bbCodeCode">
<div class="type">Code:</div>
<pre>General
Complete name                  : G:\Новая папка\Ruby - Buna, ce mai zici_ (feat. Dorian Popa).mp4
Format                         : MPEG-4
Format profile                 : Base Media
Codec ID                       : isom (isom/iso2/avc1/mp41)
File size                      : 148 MiB
Duration                       : 3 min 6 s
Overall bit rate               : 6 668 kb/s
Frame rate                     : 25.000 FPS
Movie name                     : Buna, ce mai zici? (feat. Dorian Popa)
Performer                      : Ruby
Genre                          : Pop
ContentType                    : Music Video
Recorded date                  : 2022-01-13 08:00:00 UTC
Writing application            : Lavf56.30.100
Copyright                      : ℗ 2015 Cat Music / Mediapro Music

Video
ID                             : 1
Format                         : AVC
Format/Info                    : Advanced Video Codec
Format profile                 : High@L4
Format settings                : CABAC / 5 Ref Frames
Format settings, CABAC         : Yes
Format settings, Reference fra : 5 frames
Format settings, Slice count   : 8 slices per frame
Codec ID                       : avc1
Codec ID/Info                  : Advanced Video Coding
Duration                       : 3 min 6 s
Bit rate                       : 6 402 kb/s
Width                          : 1 920 pixels
Height                         : 864 pixels
Display aspect ratio           : 2.222
Frame rate mode                : Constant
Frame rate                     : 25.000 FPS
Color space                    : YUV
Chroma subsampling             : 4:2:0
Bit depth                      : 8 bits
Scan type                      : Progressive
Bits/(Pixel*Frame)             : 0.154
Stream size                    : 142 MiB (96%)
Color range                    : Limited
Color primaries                : BT.709
Transfer characteristics       : BT.709
Matrix coefficients            : BT.709
Codec configuration box        : avcC

Audio
ID                             : 2
Format                         : AAC LC
Format/Info                    : Advanced Audio Codec Low Complexity
Codec ID                       : mp4a-40-2
Duration                       : 3 min 6 s
Duration_LastFrame             : -15 ms
Bit rate mode                  : Constant
Bit rate                       : 265 kb/s
Channel(s)                     : 2 channels
Channel layout                 : L R
Sampling rate                  : 48.0 kHz
Frame rate                     : 46.875 FPS (1024 SPF)
Compression mode               : Lossy
Stream size                    : 5.82 MiB (4%)
Default                        : Yes
Alternate group                : 1

</pre>
</div>
<div class="bbCodeBlock bbCodeVfcHH HiddenContent">
<div class="attribution type">Hidden Content:</div>
<blockquote>You must either reply or click 'Like' to see the hidden information contained here.</blockquote>
</div>
<div class="messageTextEndMarker">&nbsp;</div>
</blockquote>
</article>]]></description>
                <author><![CDATA[vitalya3]]></author>
                </item>

                </channel></rss>